<svg width="179" height="15" viewBox="0 0 179 15" fill="none" xmlns="http://www.w3.org/2000/svg">
<g clip-path="url(#clip0_52_5714)">
<path d="M13.8088 0.667969H10.8581L7.21689 5.83684L3.49195 0.667969H0.625V14.3331H3.65936V5.83684L7.21689 10.629L10.8581 5.83684V14.3331H13.8088V0.667969Z" fill="#F8F3EE"/>
<path d="M22.8469 8.8712H20.1683L21.5076 4.41384L22.8469 8.8712ZM23.7677 11.6335L24.6675 14.3331H28.0158L23.0562 0.667969H19.9381L15.125 14.3331H18.4523L19.2894 11.6335H23.7677Z" fill="#F8F3EE"/>
<path d="M38.0629 0.667969H34.5263L32.0151 5.75314L29.504 0.667969H25.9883L30.4875 8.74564V14.3331H33.6056V8.74564L38.0629 0.667969Z" fill="#F8F3EE"/>
<path d="M48.5238 7.4906C48.5434 8.02107 48.4583 8.5502 48.2732 9.04773C48.0881 9.54526 47.8068 10.0014 47.4453 10.3901C47.0838 10.7789 46.6492 11.0925 46.1664 11.3131C45.6836 11.5337 45.162 11.657 44.6315 11.6759C43.5581 11.6222 42.5466 11.1576 41.8064 10.3785C41.0662 9.59932 40.6541 8.56529 40.6554 7.4906C40.6554 6.44718 41.0699 5.4465 41.8077 4.7087C42.5455 3.97089 43.5462 3.55639 44.5896 3.55639C45.633 3.55639 46.6337 3.97089 47.3715 4.7087C48.1093 5.4465 48.5238 6.44718 48.5238 7.4906ZM51.5582 7.4906C51.561 6.57195 51.3821 5.66182 51.0318 4.81257C50.6815 3.96332 50.1668 3.19171 49.5172 2.54212C48.8676 1.89254 48.096 1.3778 47.2467 1.02752C46.3975 0.677246 45.4874 0.498345 44.5687 0.501108C43.1573 0.476203 41.7704 0.871701 40.5844 1.63729C39.3984 2.40288 38.4669 3.50396 37.9085 4.80044C37.3501 6.09692 37.1899 7.53021 37.4484 8.91797C37.7069 10.3057 38.3724 11.5852 39.3602 12.5937C40.348 13.6022 41.6134 14.294 42.9955 14.5813C44.3776 14.8685 45.8139 14.7381 47.1217 14.2067C48.4295 13.6753 49.5496 12.7669 50.3396 11.597C51.1297 10.4271 51.5538 9.04871 51.5582 7.63708" fill="#F8F3EE"/>
<path d="M56.6203 3.22028H57.2272C58.0433 3.22028 58.2944 3.22028 58.6502 3.51325C58.8624 3.65025 59.0356 3.83978 59.1529 4.06345C59.2702 4.28712 59.3277 4.53732 59.3198 4.78978C59.3198 5.91981 58.6083 6.44298 57.0388 6.44298H56.6203V3.22028ZM60.136 8.45194C60.7851 8.09525 61.3237 7.56691 61.6928 6.92471C62.0619 6.28251 62.2473 5.55118 62.2286 4.8107C62.2386 4.21063 62.1119 3.61616 61.8581 3.07231C61.6043 2.52846 61.2301 2.0495 60.7638 1.67171C59.6137 0.827787 58.1792 0.467269 56.7668 0.667233H53.5859V14.3323H56.6203V9.16344H57.2272L60.5127 14.3323H63.9446L60.136 8.45194Z" fill="#F8F3EE"/>
<path d="M79.5995 7.49026C79.619 8.02073 79.5339 8.54987 79.3488 9.0474C79.1637 9.54492 78.8824 10.0011 78.5209 10.3898C78.1594 10.7785 77.7248 11.0922 77.242 11.3128C76.7592 11.5334 76.2376 11.6567 75.7071 11.6756C74.6338 11.6219 73.6222 11.1573 72.882 10.3781C72.1418 9.59898 71.7297 8.56495 71.731 7.49026C71.731 6.44685 72.1455 5.44616 72.8833 4.70836C73.6211 3.97055 74.6218 3.55605 75.6652 3.55605C76.7087 3.55605 77.7093 3.97055 78.4472 4.70836C79.185 5.44616 79.5995 6.44685 79.5995 7.49026ZM82.6547 7.49026C82.6576 6.56629 82.4767 5.65098 82.1225 4.79759C81.7683 3.94419 81.2479 3.16975 80.5916 2.51933C79.9354 1.86891 79.1563 1.35549 78.2998 1.00895C77.4433 0.66241 76.5264 0.489666 75.6025 0.500769C74.1919 0.480029 72.8069 0.879097 71.6237 1.64727C70.4404 2.41543 69.5122 3.51802 68.957 4.81494C68.4018 6.11185 68.2446 7.54454 68.5056 8.93095C68.7665 10.3174 69.4337 11.5949 70.4223 12.6013C71.411 13.6077 72.6765 14.2974 74.0581 14.5829C75.4396 14.8684 76.8749 14.7367 78.1814 14.2046C79.488 13.6725 80.6069 12.764 81.3959 11.5946C82.185 10.4251 82.6086 9.04749 82.6129 7.63675" fill="#F8F3EE"/>
<path d="M92.8882 0.667969H84.6641V14.3331H87.7403V8.45267H91.8419V5.71128H87.7403V3.38843H92.8882V0.667969Z" fill="#F8F3EE"/>
<path d="M102.201 0.667969H99.125V14.3331H107.224V11.4452H102.201V0.667969Z" fill="#F8F3EE"/>
<path d="M118.36 7.4906C118.379 8.02107 118.294 8.5502 118.109 9.04773C117.924 9.54526 117.643 10.0014 117.281 10.3901C116.92 10.7789 116.485 11.0925 116.002 11.3131C115.519 11.5337 114.998 11.657 114.467 11.6759C113.394 11.6222 112.383 11.1576 111.642 10.3785C110.902 9.59932 110.49 8.56529 110.491 7.4906C110.491 6.44718 110.906 5.4465 111.644 4.7087C112.381 3.97089 113.382 3.55639 114.426 3.55639C115.469 3.55639 116.47 3.97089 117.207 4.7087C117.945 5.4465 118.36 6.44718 118.36 7.4906ZM121.394 7.4906C121.397 6.57195 121.218 5.66182 120.868 4.81257C120.517 3.96332 120.003 3.19171 119.353 2.54212C118.704 1.89254 117.932 1.3778 117.083 1.02752C116.233 0.677246 115.323 0.498345 114.405 0.501108C112.993 0.476203 111.606 0.871701 110.42 1.63729C109.234 2.40288 108.303 3.50396 107.744 4.80044C107.186 6.09692 107.026 7.53021 107.284 8.91797C107.543 10.3057 108.208 11.5852 109.196 12.5937C110.184 13.6022 111.449 14.294 112.831 14.5813C114.214 14.8685 115.65 14.7381 116.958 14.2067C118.265 13.6753 119.386 12.7669 120.176 11.597C120.966 10.4271 121.39 9.04871 121.394 7.63708" fill="#F8F3EE"/>
<path d="M135.288 0.667969H132.212V9.01769L126.08 0.667969H123.297V14.3331H126.373V6.06704L132.505 14.3331H135.288V0.667969Z" fill="#F8F3EE"/>
<path d="M140.897 3.32558H141.524C142.178 3.24771 142.841 3.30605 143.471 3.49693C144.102 3.68781 144.686 4.0071 145.186 4.43469C145.586 4.83245 145.897 5.31033 146.099 5.83691C146.301 6.36349 146.39 6.92685 146.358 7.48997C146.437 8.38538 146.197 9.27986 145.68 10.0152C145.163 10.7505 144.403 11.2792 143.533 11.5079C142.947 11.6174 142.35 11.6595 141.755 11.6334H140.897V3.32558ZM137.82 0.667895V14.333H140.478C141.837 14.4186 143.202 14.3272 144.538 14.0609C145.634 13.8118 146.631 13.2438 147.405 12.4287C148.681 11.0795 149.38 9.28447 149.351 7.42719C149.362 6.38536 149.134 5.35481 148.684 4.41507C148.235 3.47532 147.575 2.65151 146.756 2.0072C145.28 0.939758 143.459 0.462096 141.65 0.667895H137.82Z" fill="#F8F3EE"/>
<path d="M161.68 7.4906C161.714 8.56395 161.321 9.60701 160.588 10.3914C159.854 11.1758 158.84 11.6377 157.767 11.6759C156.693 11.6222 155.682 11.1576 154.942 10.3785C154.202 9.59932 153.789 8.56529 153.791 7.4906C153.751 6.94842 153.824 6.40391 154.004 5.89107C154.185 5.37824 154.469 4.90808 154.839 4.50996C155.209 4.11184 155.657 3.7943 156.156 3.57716C156.654 3.36003 157.192 3.24797 157.735 3.24797C158.279 3.24797 158.817 3.36003 159.315 3.57716C159.814 3.7943 160.262 4.11184 160.632 4.50996C161.002 4.90808 161.286 5.37824 161.467 5.89107C161.647 6.40391 161.72 6.94842 161.68 7.4906ZM164.714 7.4906C164.717 6.57195 164.538 5.66182 164.188 4.81257C163.838 3.96332 163.323 3.19171 162.673 2.54212C162.024 1.89254 161.252 1.3778 160.403 1.02752C159.554 0.677246 158.644 0.498345 157.725 0.501108C156.314 0.476203 154.927 0.871701 153.741 1.63729C152.555 2.40288 151.623 3.50396 151.065 4.80044C150.506 6.09692 150.346 7.53021 150.605 8.91797C150.863 10.3057 151.529 11.5852 152.516 12.5937C153.504 13.6022 154.77 14.294 156.152 14.5813C157.534 14.8685 158.97 14.7381 160.278 14.2067C161.586 13.6753 162.706 12.7669 163.496 11.597C164.286 10.4271 164.71 9.04871 164.714 7.63708" fill="#F8F3EE"/>
<path d="M178.585 0.667969H175.508V9.01769L169.377 0.667969H166.594V14.3331H169.67V6.06704L175.801 14.3331H178.585V0.667969Z" fill="#F8F3EE"/>
</g>
<defs>
<clipPath id="clip0_52_5714">
<rect width="177.96" height="14.6055" fill="white" transform="translate(0.625 0.394531)"/>
</clipPath>
</defs>
</svg>
