<svg id="Group_122" data-name="Group 122" xmlns="http://www.w3.org/2000/svg" viewBox="0 0 164.284 27.623">
  <defs>
    <style>
      .cls-1 {
        fill: #fff;
      }
    </style>
  </defs>
  <g id="Group_1" data-name="Group 1">
    <path id="Path_1" data-name="Path 1" class="cls-1" d="M6.7,10.067H0V5.2H18.71v4.867h-6.7V29.094H6.7Z" transform="translate(0 -1.913)"/>
    <path id="Path_2" data-name="Path 2" class="cls-1" d="M32.1,2.1h5.183V12.277a6.543,6.543,0,0,1,5.373-2.971c3.919,0,6.195,2.592,6.195,6.827v11.82H43.668V17.776c0-2.465-1.138-3.729-3.161-3.729-1.96,0-3.224,1.264-3.224,3.729V27.953H32.1V2.1Z" transform="translate(-11.809 -0.773)"/>
    <path id="Path_3" data-name="Path 3" class="cls-1" d="M93.1,14.1h5.5l4.109,12.263L106.817,14.1h5.436l-7.269,18.457h-4.678Z" transform="translate(-34.251 -5.187)"/>
    <path id="Path_4" data-name="Path 4" class="cls-1" d="M134.858,21.591c-.316-2.339-1.643-3.919-3.856-3.919-2.149,0-3.54,1.517-3.982,3.919ZM121.9,23.108v-.063c0-5.246,3.729-9.545,9.039-9.545,6.131,0,8.913,4.741,8.913,9.924,0,.379-.063.885-.063,1.391H127.02a4.273,4.273,0,0,0,4.488,3.6,5.894,5.894,0,0,0,4.425-1.9l2.971,2.655a9.058,9.058,0,0,1-7.459,3.413,9.18,9.18,0,0,1-9.545-9.482Z" transform="translate(-44.846 -4.967)"/>
    <path id="Path_5" data-name="Path 5" class="cls-1" d="M162.1,5.2h1.77V27.577h14.665V29.22H162.1Z" transform="translate(-59.636 -1.913)"/>
    <path id="Path_6" data-name="Path 6" class="cls-1" d="M199.559,27.577c6.7,0,10.935-4.551,10.935-10.3V17.21c0-5.689-4.235-10.367-10.935-10.367h-5.626V27.577ZM192.1,5.2h7.459c7.522,0,12.769,5.183,12.769,11.947v.063c0,6.764-5.183,12.01-12.769,12.01H192.1V5.2Z" transform="translate(-70.673 -1.913)"/>
    <path id="Path_7" data-name="Path 7" class="cls-1" d="M228.4,5.2h1.643L246.6,26.123V5.2h1.707V29.22h-1.327L230.107,7.855V29.22H228.4Z" transform="translate(-84.027 -1.913)"/>
    <path id="Path_8" data-name="Path 8" class="cls-1" d="M85.392,15.238A3.64,3.64,0,0,1,82.8,14.1h0V32.431h5.183V14.1H87.92a3.392,3.392,0,0,1-2.528,1.138Z" transform="translate(-30.462 -5.187)"/>
    <path id="Path_9" data-name="Path 9" class="cls-1" d="M88.353,3.477A3.466,3.466,0,0,0,84.877,0,3.507,3.507,0,0,0,81.4,3.477a3.507,3.507,0,0,0,3.477,3.477,3.466,3.466,0,0,0,3.477-3.477m-1.327,0a2.149,2.149,0,0,1-4.3,0,2.149,2.149,0,1,1,4.3,0" transform="translate(-29.947)"/>
    <path id="Path_10" data-name="Path 10" class="cls-1" d="M62.3,14.059h5.183v3.982C68.558,15.513,70.265,13.87,73.3,14v5.436h-.253c-3.477,0-5.563,2.086-5.563,6.447v6.447H62.3V14.059Z" transform="translate(-22.92 -5.147)"/>
  </g>
</svg>
