<svg width="109" height="41" viewBox="0 0 109 41" fill="none" xmlns="http://www.w3.org/2000/svg">
<path d="M93.9421 6.76367L90.8125 9.89323L93.9421 13.0228V6.76367Z" fill="#FF9E1B"/>
<path d="M97.3359 18.4409L100.144 15.6331L97.3359 12.8252V18.4409Z" fill="#DE2183"/>
<path d="M78.5021 34.2592V24.1795L76.1488 24.1983V25.9862C75.7816 25.4025 75.2664 24.9266 74.6556 24.6066C74.0366 24.2803 73.3196 24.1172 72.5047 24.1172C71.5286 24.1172 70.6653 24.3342 69.9147 24.7681C69.1673 25.1994 68.5606 25.8379 68.1679 26.6064C67.7536 27.3973 67.5469 28.6564 67.5469 29.6892C67.5469 30.7399 67.7536 32.0067 68.1679 32.8079C68.5601 33.5858 69.1661 34.2357 69.9147 34.6812C70.6653 35.1288 71.5286 35.3526 72.5047 35.3526C73.3321 35.3526 74.0542 35.1926 74.671 34.8725C75.2833 34.5563 75.7953 34.0756 76.1496 33.4844V34.3446V35.7378C76.1496 36.6866 75.8364 37.444 75.21 38.01C74.5835 38.5761 73.7456 38.8588 72.696 38.8583C72.0787 38.8641 71.4652 38.7614 70.8834 38.555C70.3873 38.371 69.9161 38.1256 69.4808 37.8247L68.05 39.2572L68.226 39.3708C69.6468 40.3332 71.1716 40.8147 72.8003 40.8152C73.9443 40.8152 74.9472 40.6065 75.8088 40.1891C76.6343 39.804 77.328 39.1843 77.8034 38.4072C78.2715 37.6356 78.5055 36.7244 78.5055 35.6738L78.5166 34.2558L78.5021 34.2592ZM75.2612 32.5363C74.6695 33.1695 73.909 33.4859 72.9796 33.4853C72.0298 33.4853 71.261 33.1689 70.6733 32.5363C70.0881 31.9033 69.7883 30.7501 69.7746 29.7609C69.7883 28.7649 70.0916 27.6118 70.6835 26.9856C71.2755 26.3595 72.04 26.046 72.9762 26.046C73.9124 26.046 74.6846 26.3603 75.2681 26.9899C75.8515 27.6194 76.1462 28.7709 76.1462 29.7601C76.1462 30.7493 75.854 31.9016 75.2612 32.5346V32.5363Z" fill="#2E1108"/>
<path d="M11.0933 13.4536C10.5788 13.768 10.0254 14.0138 9.4472 14.1848C8.90357 14.3507 8.33877 14.437 7.77039 14.441C6.83595 14.45 5.91541 14.2144 5.10014 13.7577C4.30446 13.3194 3.64033 12.6765 3.17647 11.8955C2.71336 11.1091 2.46914 10.2131 2.46914 9.30041C2.46914 8.38777 2.71336 7.49175 3.17647 6.70533C3.63933 5.92507 4.3015 5.28205 5.09502 4.8423C5.90538 4.38647 6.82101 4.15086 7.75075 4.15894C8.51362 4.1606 9.26917 4.30789 9.97681 4.59287C10.5907 4.83555 11.1617 5.17498 11.6681 5.59828L13.2459 4.0197C13.0816 3.84212 12.8982 3.68313 12.6992 3.54561C12.0975 3.13131 11.446 2.79438 10.7601 2.54277C9.79851 2.18003 8.77936 1.99368 7.7516 1.99266C6.38147 1.97782 5.02982 2.30956 3.82225 2.95707C2.67056 3.56602 1.70308 4.47244 1.02044 5.58205C0.338031 6.69862 -0.0154872 7.98508 0.000520498 9.29358C-0.00991411 10.5952 0.333044 11.8753 0.992838 12.9974C1.65263 14.1194 2.60454 15.0414 3.74708 15.6651C4.9276 16.3153 6.25616 16.6493 7.60382 16.6346C9.62764 16.6027 11.5922 15.9463 13.2288 14.7554V9.41488H11.0933V13.4536Z" fill="#2E1108"/>
<path d="M23.4229 6.15579C24.27 6.60599 24.972 7.28726 25.4473 8.12047C25.9291 8.95873 26.17 9.92968 26.17 11.0333C26.17 12.1244 25.9291 13.0925 25.4473 13.9376C24.9763 14.7765 24.2734 15.4619 23.4229 15.9117C22.555 16.3798 21.5621 16.6139 20.4443 16.6139C19.3133 16.6139 18.3136 16.3798 17.4451 15.9117C16.5965 15.4612 15.8952 14.7763 15.4249 13.9385C14.9443 13.09 14.7037 12.1219 14.7031 11.0342C14.7031 9.93053 14.9437 8.95958 15.4249 8.12132C15.9006 7.28831 16.6025 6.60711 17.4494 6.15664C18.3184 5.68569 19.3181 5.45021 20.4485 5.45021C21.563 5.44793 22.5544 5.68313 23.4229 6.15579ZM18.0157 8.49375C17.3865 9.15662 17.0718 10.0108 17.0718 11.0564C17.0718 12.1196 17.3865 12.9829 18.0157 13.6463C18.645 14.3098 19.4545 14.6412 20.4443 14.6406C21.4334 14.6406 22.2395 14.3092 22.8625 13.6463C23.4855 12.9835 23.7967 12.1184 23.7962 11.0513C23.7962 10.0006 23.4812 9.14637 22.8514 8.48863C22.2216 7.83089 21.4192 7.50031 20.4443 7.49689C19.4551 7.49689 18.6456 7.82833 18.0157 8.49119V8.49375Z" fill="#2E1108"/>
<path d="M36.053 6.15663C36.8997 6.60733 37.6016 7.28848 38.0775 8.12131C38.5581 8.95957 38.7987 9.93052 38.7993 11.0342C38.7993 12.1253 38.5587 13.0934 38.0775 13.9385C37.6059 14.777 36.9032 15.4623 36.053 15.9125C35.184 16.3806 34.1911 16.6147 33.0744 16.6147C31.9434 16.6147 30.9437 16.3806 30.0753 15.9125C29.2247 15.4627 28.5219 14.7774 28.0508 13.9385C27.569 13.09 27.3281 12.1219 27.3281 11.0342C27.3281 9.93052 27.569 8.95957 28.0508 8.12131C28.5262 7.2881 29.2282 6.60684 30.0753 6.15663C30.9431 5.68568 31.9428 5.4502 33.0744 5.4502C34.1917 5.4485 35.1846 5.68397 36.053 6.15663ZM30.6459 8.4946C30.016 9.15746 29.7011 10.0117 29.7011 11.0572C29.7011 12.1204 30.016 12.9837 30.6459 13.6472C31.2757 14.3106 32.0852 14.642 33.0744 14.6415C34.0636 14.6415 34.8696 14.31 35.4926 13.6472C36.1156 12.9843 36.4269 12.121 36.4263 11.0572C36.4263 10.0065 36.1131 9.15234 35.4867 8.4946C34.8602 7.83686 34.0562 7.50457 33.0744 7.49774C32.0846 7.49774 31.2751 7.82917 30.6459 8.49204V8.4946Z" fill="#2E1108"/>
<path d="M49.8925 1.18457H49.6457L49.0289 1.80131V7.43652C48.6323 6.80904 48.0791 6.29562 47.4239 5.94678C46.7707 5.59997 46.0033 5.42657 45.1218 5.42657C44.0967 5.42657 43.1896 5.66062 42.4003 6.12872C41.6107 6.59529 40.9699 7.27665 40.5526 8.0934C40.1107 8.93508 39.8901 9.90119 39.8906 10.9917C39.8906 12.0954 40.1113 13.0749 40.5526 13.9302C40.9671 14.7565 41.6079 15.4479 42.4003 15.9239C43.1913 16.3989 44.1118 16.6363 45.1619 16.6363C46.0298 16.6363 46.7921 16.4681 47.4487 16.1315C48.1027 15.7971 48.6501 15.2864 49.0289 14.6571V16.5364H51.4019V1.18457H49.8925ZM48.0902 13.65C47.4637 14.3203 46.6525 14.6554 45.6565 14.6554C44.6605 14.6554 43.851 14.3203 43.228 13.65C42.5982 12.9803 42.2767 12.1204 42.2636 11.0703C42.2773 10.0134 42.5987 9.14664 43.228 8.47011C43.8573 7.79358 44.6668 7.45531 45.6565 7.45531C46.6525 7.45531 47.4637 7.79187 48.0902 8.46498C48.7166 9.1381 49.0298 10.0065 49.0298 11.0703C49.0292 12.1216 48.716 12.9815 48.0902 13.65Z" fill="#2E1108"/>
<path d="M7.17442 22.9137V35.2023H4.73053V22.9137H0.15625V20.7227H11.7555V22.9137H7.17442Z" fill="#2E1108"/>
<path d="M22.2172 25.2469C21.4928 24.4923 20.488 24.1153 19.2027 24.1159C17.25 24.1159 15.8935 24.8596 15.1332 26.3471V19.8551H13.5051L13.1455 19.8389L12.75 20.2344V35.2026H15.1332V29.781C15.1332 28.7912 15.416 27.9749 15.9815 27.332C16.547 26.689 17.3112 26.3607 18.2742 26.3471C19.1016 26.3471 19.7494 26.5863 20.2175 27.0646C20.6856 27.543 20.9196 28.1959 20.9196 29.0233V35.2026H23.302V28.357C23.302 27.037 22.9404 26.0003 22.2172 25.2469Z" fill="#2E1108"/>
<path d="M24.7969 35.2037V24.1973H27.1596V35.2037H24.7969Z" fill="#2E1108"/>
<path d="M25.2938 19.8242L24.7812 20.3367V22.216H27.173V19.8242H25.2938Z" fill="#2E1108"/>
<path d="M38.0345 25.2462C38.7611 26.0008 39.1244 27.0375 39.1244 28.3564V35.202H36.742V29.0227C36.742 28.1946 36.508 27.5417 36.0399 27.064C35.5718 26.5862 34.9237 26.347 34.0957 26.3464C33.2142 26.3601 32.4941 26.6428 31.9354 27.1947C31.3768 27.7465 31.0573 28.4634 30.977 29.3455V35.202H28.5938V24.1955H30.977V26.3063C31.7247 24.8456 33.0744 24.1152 35.0259 24.1152C36.3044 24.1152 37.3072 24.4922 38.0345 25.2462Z" fill="#2E1108"/>
<path d="M65.2458 25.2462C65.973 26.0008 66.3363 27.0375 66.3357 28.3564V35.202H63.9491V29.0227C63.9491 28.1946 63.7153 27.5417 63.2478 27.064C62.7802 26.5862 62.1322 26.347 61.3036 26.3464C60.422 26.3601 59.7019 26.6428 59.1433 27.1947C58.5846 27.7465 58.2649 28.4634 58.184 29.3455V35.202H55.8008V24.1955H58.184V26.3063C58.9306 24.8456 60.2803 24.1152 62.233 24.1152C63.5143 24.1152 64.5185 24.4922 65.2458 25.2462Z" fill="#2E1108"/>
<path d="M52.2899 19.8242L51.7773 20.3367V22.216H54.1691V19.8242H52.2899Z" fill="#2E1108"/>
<path d="M51.8086 35.2037V24.1973H54.1713V35.2037H51.8086Z" fill="#2E1108"/>
<path d="M46.42 28.4588L50.4895 24.1972H47.7637L42.9067 29.1251V19.8561H41.2692L41.0727 19.8467L40.5234 20.3959V35.2036H42.9067V32.1242L44.7646 30.1553L47.996 35.2036H50.803L46.42 28.4588Z" fill="#2E1108"/>
<path d="M105.335 10.4619H102.426V13.3716L105.335 10.4619Z" fill="#242E50"/>
<path d="M97.3867 2.00098L100.164 4.77813L97.3867 7.55529V2.00098Z" fill="#008098"/>
<path d="M108.245 12.2695V15.897H104.617L108.245 12.2695Z" fill="#FF9D1B"/>
<path d="M102.305 19.21L104.268 21.1732L106.231 19.21H102.305Z" fill="#2DCCD3"/>
<path d="M86.6278 10.6434L84.4237 8.43848L82.2188 10.6434H86.6278Z" fill="#E40046"/>
<path d="M83.6758 14.0371L86.4643 16.8256L89.2527 14.0379L83.6758 14.0371Z" fill="#2DCCD3"/>
<path d="M94.0206 22.3636V19.373H90.9492L94.0206 22.3636Z" fill="#008099"/>
<path d="M94.8625 35.8601V26.6743L88.1136 19.9715L89.5628 19.1406L94.8625 24.404V17.4837L90.4123 13.0634H82.9327L82 11.4582H88.7958L84.5985 7.29003L85.7414 6.15524L94.8625 15.2133V1.83918L96.479 0.912109V9.60648L101.277 4.84183L103.08 5.32193L96.479 11.8769V20.4023L107.441 9.51757L108.277 10.9563L102.6 16.5954H108.535L108.102 18.2006H100.983L96.479 22.6735V35.8601H94.8625Z" fill="#2E1108"/>
</svg>
