<svg width="12" height="11" viewBox="0 0 12 11" fill="none" xmlns="http://www.w3.org/2000/svg">
<path d="M11.517 5.41129L6.28779 0.185903C6.25014 0.148177 6.20542 0.118248 6.15619 0.0978268C6.10695 0.0774058 6.05418 0.0668945 6.00088 0.0668945C5.94758 0.0668945 5.8948 0.0774058 5.84557 0.0978268C5.79634 0.118248 5.75162 0.148177 5.71396 0.185903L0.484766 5.41129C0.332422 5.56364 0.246094 5.77057 0.246094 5.98639C0.246094 6.43454 0.610449 6.79889 1.05859 6.79889H1.60957V10.5275C1.60957 10.7522 1.79111 10.9338 2.01582 10.9338H5.18838V8.09H6.61025V10.9338H9.98594C10.2106 10.9338 10.3922 10.7522 10.3922 10.5275V6.79889H10.9432C11.159 6.79889 11.3659 6.71383 11.5183 6.56022C11.8344 6.24284 11.8344 5.72868 11.517 5.41129Z" fill="#1E0C06"/>
</svg>
