<svg width="124" height="46" viewBox="0 0 124 46" fill="none" xmlns="http://www.w3.org/2000/svg">
<path d="M89.1251 37.6779V26.5183L86.5196 26.5391V28.5185C86.1131 27.8723 85.5427 27.3453 84.8665 26.9911C84.1811 26.6299 83.3873 26.4492 82.4851 26.4492C81.4045 26.4492 80.4486 26.6894 79.6177 27.1699C78.7901 27.6474 78.1184 28.3543 77.6836 29.2051C77.225 30.0808 76.9961 31.4748 76.9961 32.6182C76.9961 33.7815 77.225 35.184 77.6836 36.0711C78.1179 36.9323 78.7888 37.6518 79.6177 38.1451C80.4486 38.6406 81.4045 38.8884 82.4851 38.8884C83.4012 38.8884 84.2007 38.7112 84.8835 38.3569C85.5614 38.0068 86.1283 37.4746 86.5205 36.8201V37.7724V39.3149C86.5205 40.3653 86.1738 41.2039 85.4802 41.8306C84.7867 42.4573 83.8589 42.7703 82.697 42.7697C82.0135 42.7761 81.3343 42.6625 80.6901 42.4339C80.1408 42.2302 79.6191 41.9585 79.1372 41.6253L77.5531 43.2113L77.748 43.3371C79.321 44.4026 81.0091 44.9357 82.8123 44.9363C84.079 44.9363 85.1893 44.7053 86.1432 44.2431C87.0571 43.8168 87.8252 43.1306 88.3515 42.2703C88.8697 41.416 89.1289 40.4072 89.1289 39.244L89.1412 37.6741L89.1251 37.6779ZM85.537 35.7703C84.8819 36.4714 84.0399 36.8217 83.0109 36.821C81.9593 36.821 81.1081 36.4708 80.4575 35.7703C79.8096 35.0695 79.4777 33.7928 79.4626 32.6977C79.4777 31.5949 79.8134 30.3182 80.4688 29.625C81.1242 28.9318 81.9706 28.5847 83.0072 28.5847C84.0437 28.5847 84.8986 28.9327 85.5445 29.6297C86.1905 30.3267 86.5168 31.6016 86.5168 32.6967C86.5168 33.7919 86.1933 35.0677 85.537 35.7684V35.7703Z" fill="white"/>
<path d="M14.4967 14.6445C13.9271 14.9926 13.3144 15.2648 12.6742 15.4541C12.0724 15.6378 11.4471 15.7333 10.8178 15.7378C9.78322 15.7477 8.76405 15.4869 7.86143 14.9812C6.98049 14.496 6.24521 13.7842 5.73165 12.9195C5.21892 12.0488 4.94853 11.0568 4.94853 10.0464C4.94853 9.03596 5.21892 8.04394 5.73165 7.17326C6.2441 6.3094 6.97722 5.59749 7.85575 5.11062C8.75294 4.60595 9.76668 4.34509 10.796 4.35404C11.6406 4.35589 12.4771 4.51895 13.2606 4.83447C13.9402 5.10315 14.5724 5.47895 15.1331 5.94759L16.8799 4.19989C16.698 4.00328 16.495 3.82726 16.2746 3.67501C15.6085 3.21631 14.8872 2.84328 14.1278 2.56472C13.0632 2.16311 11.9348 1.95679 10.797 1.95567C9.28004 1.93923 7.78357 2.30651 6.44662 3.0234C5.17154 3.69759 4.10039 4.70113 3.34462 5.92963C2.58909 7.16583 2.1977 8.59013 2.21542 10.0388C2.20387 11.4799 2.58357 12.8972 3.31406 14.1394C4.04454 15.3817 5.09844 16.4025 6.3634 17.093C7.6704 17.8129 9.14131 18.1827 10.6334 18.1664C12.874 18.131 15.049 17.4044 16.861 16.0858V10.1731H14.4967V14.6445Z" fill="white"/>
<path d="M28.1501 6.56635C29.0879 7.06479 29.8652 7.81904 30.3915 8.74153C30.9249 9.6696 31.1916 10.7446 31.1916 11.9665C31.1916 13.1745 30.9249 14.2463 30.3915 15.1819C29.8699 16.1107 29.0918 16.8695 28.1501 17.3675C27.1892 17.8858 26.09 18.1449 24.8523 18.1449C23.6002 18.1449 22.4934 17.8858 21.5319 17.3675C20.5923 16.8688 19.8159 16.1105 19.2952 15.1829C18.7631 14.2435 18.4967 13.1716 18.4961 11.9674C18.4961 10.7455 18.7625 9.67055 19.2952 8.74247C19.8219 7.82021 20.599 7.06603 21.5366 6.56729C22.4987 6.04588 23.6056 5.78517 24.8571 5.78517C26.0909 5.78265 27.1886 6.04304 28.1501 6.56635ZM22.1636 9.15481C21.4669 9.8887 21.1186 10.8344 21.1186 11.992C21.1186 13.1691 21.4669 14.1249 22.1636 14.8595C22.8603 15.594 23.7566 15.9609 24.8523 15.9603C25.9475 15.9603 26.8399 15.5933 27.5297 14.8595C28.2195 14.1256 28.564 13.1679 28.5634 11.9863C28.5634 10.8231 28.2147 9.87735 27.5174 9.14914C26.8201 8.42092 25.9317 8.05493 24.8523 8.05114C23.7572 8.05114 22.861 8.41809 22.1636 9.15197V9.15481Z" fill="white"/>
<path d="M42.1323 6.56728C43.0698 7.06628 43.8469 7.8204 44.3737 8.74246C44.9059 9.67054 45.1722 10.7455 45.1729 11.9674C45.1729 13.1754 44.9065 14.2472 44.3737 15.1829C43.8517 16.1113 43.0736 16.87 42.1323 17.3685C41.1702 17.8867 40.071 18.1459 38.8346 18.1459C37.5824 18.1459 36.4756 17.8867 35.5141 17.3685C34.5725 16.8705 33.7943 16.1117 33.2728 15.1829C32.7394 14.2435 32.4727 13.1716 32.4727 11.9674C32.4727 10.7455 32.7394 9.67054 33.2728 8.74246C33.7991 7.81998 34.5763 7.06573 35.5141 6.56728C36.475 6.04587 37.5818 5.78517 38.8346 5.78517C40.0716 5.78328 41.1708 6.04398 42.1323 6.56728ZM36.1459 9.15575C35.4486 9.88963 35.0999 10.8354 35.0999 11.9929C35.0999 13.1701 35.4486 14.1259 36.1459 14.8604C36.8432 15.5949 37.7394 15.9619 38.8346 15.9612C39.9297 15.9612 40.8222 15.5943 41.5119 14.8604C42.2017 14.1265 42.5463 13.1707 42.5456 11.9929C42.5456 10.8297 42.1989 9.88396 41.5053 9.15575C40.8118 8.42754 39.9215 8.05965 38.8346 8.05208C37.7388 8.05208 36.8426 8.41902 36.1459 9.15291V9.15575Z" fill="white"/>
<path d="M57.4564 1.06055H57.183L56.5002 1.74336V7.98234C56.0611 7.28764 55.4487 6.71921 54.7232 6.33299C54 5.94902 53.1505 5.75704 52.1745 5.75704C51.0396 5.75704 50.0352 6.01617 49.1614 6.53443C48.2871 7.05099 47.5777 7.80535 47.1158 8.70961C46.6265 9.64147 46.3822 10.7111 46.3828 11.9185C46.3828 13.1404 46.6271 14.2248 47.1158 15.1718C47.5746 16.0866 48.284 16.8521 49.1614 17.3791C50.0371 17.9049 51.0563 18.1679 52.2189 18.1679C53.1798 18.1679 54.0237 17.9815 54.7506 17.6089C55.4747 17.2387 56.0808 16.6733 56.5002 15.9766V18.0572H59.1275V1.06055H57.4564ZM55.4609 14.8616C54.7673 15.6037 53.8692 15.9747 52.7665 15.9747C51.6638 15.9747 50.7675 15.6037 50.0778 14.8616C49.3805 14.1201 49.0245 13.1681 49.01 12.0055C49.0252 10.8353 49.3811 9.8757 50.0778 9.12668C50.7745 8.37766 51.6707 8.00315 52.7665 8.00315C53.8692 8.00315 54.7673 8.37577 55.4609 9.121C56.1544 9.86624 56.5012 10.8277 56.5012 12.0055C56.5005 13.1694 56.1538 14.1214 55.4609 14.8616Z" fill="white"/>
<path d="M10.1568 25.1172V38.7225H7.4511V25.1172H2.38672V22.6914H15.2288V25.1172H10.1568Z" fill="white"/>
<path d="M26.8136 27.7023C26.0116 26.8669 24.8991 26.4495 23.4761 26.4501C21.3141 26.4501 19.8123 27.2735 18.9706 28.9204V21.7328H17.1681L16.7699 21.7148L16.332 22.1527V38.7247H18.9706V32.7222C18.9706 31.6264 19.2837 30.7226 19.9097 30.0108C20.5358 29.299 21.3819 28.9355 22.4481 28.9204C23.3642 28.9204 24.0813 29.1852 24.5996 29.7148C25.1179 30.2444 25.377 30.9672 25.377 31.8833V38.7247H28.0146V31.1457C28.0146 29.6842 27.6143 28.5364 26.8136 27.7023Z" fill="white"/>
<path d="M29.6719 38.7248V26.5391H32.2878V38.7248H29.6719Z" fill="white"/>
<path d="M30.2198 21.6953L29.6523 22.2628V24.3434H32.3004V21.6953H30.2198Z" fill="white"/>
<path d="M44.3233 27.7014C45.1278 28.5368 45.5301 29.6846 45.5301 31.1448V38.7238H42.8924V31.8824C42.8924 30.9657 42.6333 30.2429 42.115 29.7139C41.5968 29.1849 40.8793 28.9201 39.9625 28.9195C38.9866 28.9346 38.1893 29.2476 37.5708 29.8586C36.9523 30.4695 36.5986 31.2633 36.5097 32.2399V38.7238H33.8711V26.5381H36.5097V28.875C37.3375 27.2578 38.8318 26.4492 40.9924 26.4492C42.4079 26.4492 43.5182 26.8666 44.3233 27.7014Z" fill="white"/>
<path d="M74.4491 27.7014C75.2543 28.5368 75.6565 29.6846 75.6559 31.1448V38.7238H73.0135V31.8824C73.0135 30.9657 72.7547 30.2429 72.2371 29.7139C71.7194 29.1849 71.0019 28.9201 70.0846 28.9195C69.1086 28.9346 68.3113 29.2476 67.6928 29.8586C67.0743 30.4695 66.7203 31.2633 66.6308 32.2399V38.7238H63.9922V26.5381H66.6308V28.875C67.4573 27.2578 68.9516 26.4492 71.1135 26.4492C72.5321 26.4492 73.644 26.8666 74.4491 27.7014Z" fill="white"/>
<path d="M60.1065 21.6953L59.5391 22.2628V24.3434H62.1871V21.6953H60.1065Z" fill="white"/>
<path d="M59.5742 38.7228V26.5371H62.1901V38.7228H59.5742Z" fill="white"/>
<path d="M53.6065 31.2575L58.112 26.5393H55.0941L49.7167 31.9952V21.7331H47.9037L47.6862 21.7227L47.0781 22.3308V38.725H49.7167V35.3156L51.7737 33.1357L55.3514 38.725H58.459L53.6065 31.2575Z" fill="white"/>
</svg>
