<svg width="45" height="19" viewBox="0 0 45 19" fill="none" xmlns="http://www.w3.org/2000/svg">
<g clip-path="url(#clip0_52_5708)">
<path d="M45 18.0895V0H0V18.0895H45ZM18.0895 1.72585L14.9574 16.2997H10.0994L7.03125 6.2642L4.9858 16.3636H1.27841L4.41051 1.72585H9.33239L12.3366 11.8253H12.4006L14.446 1.72585H18.0895ZM32.0241 1.72585L28.956 16.2997H25.0568L26.3352 10.0355H21.733L20.4545 16.2997H16.5554L19.6236 1.72585H23.5227L22.3722 7.28693H27.0383L28.125 1.72585H32.0241ZM43.3381 2.1733L42.3793 5.04972C41.6122 4.66619 40.5895 4.41051 39.1193 4.41051C37.5852 4.41051 36.3068 4.66619 36.3068 5.81676C36.3068 7.86222 41.9957 7.09517 41.9957 11.5696C41.9957 15.5966 38.2244 16.6193 34.8366 16.6193C33.3026 16.6193 31.5767 16.2358 30.2983 15.8523L31.1932 12.9119C31.9602 13.4233 33.4943 13.7429 34.7727 13.7429C35.9872 13.7429 37.9048 13.4872 37.9048 12.017C37.9048 9.65199 32.2159 10.5469 32.2159 6.45597C32.2159 2.68466 35.5398 1.53409 38.7358 1.53409C40.6534 1.47017 42.3153 1.66193 43.3381 2.1733Z" fill="#0F2C82"/>
</g>
<defs>
<clipPath id="clip0_52_5708">
<rect width="45" height="18.0895" rx="1" fill="white"/>
</clipPath>
</defs>
</svg>
