<svg width="17" height="15" viewBox="0 0 17 15" fill="none" xmlns="http://www.w3.org/2000/svg">
<path d="M10.0563 0.880939L10.4082 0.525715L10.0563 0.88094L10.3189 1.14105C10.3192 1.14129 10.3194 1.14153 10.3197 1.14176C10.4277 1.25013 10.4969 1.40121 10.5022 1.56259L10.4848 1.74805L9.87179 4.69691C9.75885 5.24017 10.1736 5.75 10.7285 5.75H15C15.5489 5.75 16 6.20114 16 6.75V8.25C16 8.37561 15.9768 8.49191 15.932 8.60855L13.6704 13.8881L13.6704 13.8881L13.6685 13.8927C13.5194 14.2504 13.1663 14.5 12.75 14.5H6C5.45114 14.5 5 14.0489 5 13.5V6C5 5.7236 5.10962 5.47751 5.29118 5.30086L5.29121 5.3009L5.29632 5.29578L9.7035 0.88191C9.80078 0.784479 9.95853 0.784046 10.0563 0.880939ZM0.75 14.5C0.611929 14.5 0.5 14.3881 0.5 14.25V6.75C0.5 6.61193 0.611929 6.5 0.75 6.5H2.25C2.38807 6.5 2.5 6.61193 2.5 6.75V14.25C2.5 14.3881 2.38807 14.5 2.25 14.5H0.75Z" fill="white" stroke="white"/>
</svg>
