<svg width="17" height="15" viewBox="0 0 17 15" fill="none" xmlns="http://www.w3.org/2000/svg">
<path d="M6.44365 14.1191L6.09178 14.4743L6.44365 14.1191L6.18105 13.8589C6.18082 13.8587 6.18058 13.8585 6.18034 13.8582C6.07234 13.7499 6.00311 13.5988 5.99783 13.4374L6.01521 13.2519L6.62821 10.3031C6.74115 9.75983 6.3264 9.25 5.77153 9.25H1.5C0.951142 9.25 0.5 8.79886 0.5 8.25V6.75C0.5 6.62439 0.52319 6.50809 0.568003 6.39145L2.82961 1.11188L2.82963 1.11189L2.83154 1.10731C2.98058 0.749613 3.33367 0.5 3.75 0.5H10.5C11.0489 0.5 11.5 0.951142 11.5 1.5V9C11.5 9.2764 11.3904 9.52249 11.2088 9.69914L11.2088 9.6991L11.2037 9.70422L6.7965 14.1181C6.69922 14.2155 6.54147 14.216 6.44365 14.1191ZM15.75 0.5C15.8881 0.5 16 0.611929 16 0.75V8.25C16 8.38807 15.8881 8.5 15.75 8.5H14.25C14.1119 8.5 14 8.38807 14 8.25V0.75C14 0.611929 14.1119 0.5 14.25 0.5H15.75Z" fill="white" stroke="white"/>
</svg>
